<svg width="1409" height="792" viewBox="0 0 1409 792" fill="none" xmlns="http://www.w3.org/2000/svg">
<g opacity="0.6" clip-path="url(#clip0)">
<path d="M1698 493.364C1648.38 553.026 1546.06 479.618 1401.04 516.048C1275.44 547.615 1269.9 624.023 1168.94 622.53C1095.18 621.453 1013.91 580.72 968.095 507.585C917.569 426.949 933.376 343.33 937.884 323.024C958.003 231.945 1022.73 182.674 1045.57 165.828C1139.7 96.4669 1247.3 105.808 1298.93 110.263C1492.83 127.062 1703.04 260.461 1715.67 410.389C1717.34 430.017 1720.39 466.423 1698 493.364Z" fill="url(#paint0_linear)"/>
</g>
<g opacity="0.3">
<mask id="mask0" mask-type="alpha" maskUnits="userSpaceOnUse" x="0" y="127" width="11" height="11">
<path d="M5.22838 137.425C8.11594 137.425 10.4568 135.092 10.4568 132.213C10.4568 129.334 8.11594 127 5.22838 127C2.34082 127 0 129.334 0 132.213C0 135.092 2.34082 137.425 5.22838 137.425Z" fill="url(#paint1_linear)"/>
</mask>
<g mask="url(#mask0)">
<path d="M5.22838 137.425C8.11594 137.425 10.4568 135.092 10.4568 132.213C10.4568 129.334 8.11594 127 5.22838 127C2.34082 127 0 129.334 0 132.213C0 135.092 2.34082 137.425 5.22838 137.425Z" fill="url(#paint2_linear)"/>
</g>
<mask id="mask1" mask-type="alpha" maskUnits="userSpaceOnUse" x="30" y="127" width="11" height="11">
<path d="M35.5095 137.425C38.397 137.425 40.7378 135.092 40.7378 132.213C40.7378 129.334 38.397 127 35.5095 127C32.6219 127 30.2811 129.334 30.2811 132.213C30.2811 135.092 32.6219 137.425 35.5095 137.425Z" fill="url(#paint3_linear)"/>
</mask>
<g mask="url(#mask1)">
<path d="M35.5095 137.425C38.397 137.425 40.7378 135.092 40.7378 132.213C40.7378 129.334 38.397 127 35.5095 127C32.6219 127 30.2811 129.334 30.2811 132.213C30.2811 135.092 32.6219 137.425 35.5095 137.425Z" fill="url(#paint4_linear)"/>
</g>
<mask id="mask2" mask-type="alpha" maskUnits="userSpaceOnUse" x="60" y="127" width="12" height="11">
<path d="M65.7905 137.425C68.6781 137.425 71.0189 135.092 71.0189 132.213C71.0189 129.334 68.6781 127 65.7905 127C62.9029 127 60.5621 129.334 60.5621 132.213C60.5621 135.092 62.9029 137.425 65.7905 137.425Z" fill="url(#paint5_linear)"/>
</mask>
<g mask="url(#mask2)">
<path d="M65.7905 137.425C68.6781 137.425 71.0189 135.092 71.0189 132.213C71.0189 129.334 68.6781 127 65.7905 127C62.9029 127 60.5621 129.334 60.5621 132.213C60.5621 135.092 62.9029 137.425 65.7905 137.425Z" fill="url(#paint6_linear)"/>
</g>
<mask id="mask3" mask-type="alpha" maskUnits="userSpaceOnUse" x="90" y="127" width="12" height="11">
<path d="M96.0716 137.425C98.9592 137.425 101.3 135.092 101.3 132.213C101.3 129.334 98.9592 127 96.0716 127C93.184 127 90.8432 129.334 90.8432 132.213C90.8432 135.092 93.184 137.425 96.0716 137.425Z" fill="url(#paint7_linear)"/>
</mask>
<g mask="url(#mask3)">
<path d="M96.0716 137.425C98.9592 137.425 101.3 135.092 101.3 132.213C101.3 129.334 98.9592 127 96.0716 127C93.184 127 90.8432 129.334 90.8432 132.213C90.8432 135.092 93.184 137.425 96.0716 137.425Z" fill="url(#paint8_linear)"/>
</g>
<mask id="mask4" mask-type="alpha" maskUnits="userSpaceOnUse" x="121" y="127" width="11" height="11">
<path d="M126.353 137.425C129.24 137.425 131.581 135.092 131.581 132.213C131.581 129.334 129.24 127 126.353 127C123.465 127 121.124 129.334 121.124 132.213C121.124 135.092 123.465 137.425 126.353 137.425Z" fill="url(#paint9_linear)"/>
</mask>
<g mask="url(#mask4)">
<path d="M126.353 137.425C129.24 137.425 131.581 135.092 131.581 132.213C131.581 129.334 129.24 127 126.353 127C123.465 127 121.124 129.334 121.124 132.213C121.124 135.092 123.465 137.425 126.353 137.425Z" fill="url(#paint10_linear)"/>
</g>
<mask id="mask5" mask-type="alpha" maskUnits="userSpaceOnUse" x="0" y="153" width="11" height="11">
<path d="M5.22838 163.596C8.11594 163.596 10.4568 161.263 10.4568 158.384C10.4568 155.505 8.11594 153.171 5.22838 153.171C2.34082 153.171 0 155.505 0 158.384C0 161.263 2.34082 163.596 5.22838 163.596Z" fill="url(#paint11_linear)"/>
</mask>
<g mask="url(#mask5)">
<path d="M5.22838 163.596C8.11594 163.596 10.4568 161.263 10.4568 158.384C10.4568 155.505 8.11594 153.171 5.22838 153.171C2.34082 153.171 0 155.505 0 158.384C0 161.263 2.34082 163.596 5.22838 163.596Z" fill="url(#paint12_linear)"/>
</g>
<mask id="mask6" mask-type="alpha" maskUnits="userSpaceOnUse" x="30" y="153" width="11" height="11">
<path d="M35.5095 163.596C38.397 163.596 40.7378 161.263 40.7378 158.384C40.7378 155.505 38.397 153.171 35.5095 153.171C32.6219 153.171 30.2811 155.505 30.2811 158.384C30.2811 161.263 32.6219 163.596 35.5095 163.596Z" fill="url(#paint13_linear)"/>
</mask>
<g mask="url(#mask6)">
<path d="M35.5095 163.596C38.397 163.596 40.7378 161.263 40.7378 158.384C40.7378 155.505 38.397 153.171 35.5095 153.171C32.6219 153.171 30.2811 155.505 30.2811 158.384C30.2811 161.263 32.6219 163.596 35.5095 163.596Z" fill="url(#paint14_linear)"/>
</g>
<mask id="mask7" mask-type="alpha" maskUnits="userSpaceOnUse" x="60" y="153" width="12" height="11">
<path d="M65.7905 163.596C68.6781 163.596 71.0189 161.263 71.0189 158.384C71.0189 155.505 68.6781 153.171 65.7905 153.171C62.9029 153.171 60.5621 155.505 60.5621 158.384C60.5621 161.263 62.9029 163.596 65.7905 163.596Z" fill="url(#paint15_linear)"/>
</mask>
<g mask="url(#mask7)">
<path d="M65.7905 163.596C68.6781 163.596 71.0189 161.263 71.0189 158.384C71.0189 155.505 68.6781 153.171 65.7905 153.171C62.9029 153.171 60.5621 155.505 60.5621 158.384C60.5621 161.263 62.9029 163.596 65.7905 163.596Z" fill="url(#paint16_linear)"/>
</g>
<mask id="mask8" mask-type="alpha" maskUnits="userSpaceOnUse" x="90" y="153" width="12" height="11">
<path d="M96.0716 163.596C98.9592 163.596 101.3 161.263 101.3 158.384C101.3 155.505 98.9592 153.171 96.0716 153.171C93.184 153.171 90.8432 155.505 90.8432 158.384C90.8432 161.263 93.184 163.596 96.0716 163.596Z" fill="url(#paint17_linear)"/>
</mask>
<g mask="url(#mask8)">
<path d="M96.0716 163.596C98.9592 163.596 101.3 161.263 101.3 158.384C101.3 155.505 98.9592 153.171 96.0716 153.171C93.184 153.171 90.8432 155.505 90.8432 158.384C90.8432 161.263 93.184 163.596 96.0716 163.596Z" fill="url(#paint18_linear)"/>
</g>
<mask id="mask9" mask-type="alpha" maskUnits="userSpaceOnUse" x="121" y="153" width="11" height="11">
<path d="M126.353 163.596C129.24 163.596 131.581 161.263 131.581 158.384C131.581 155.505 129.24 153.171 126.353 153.171C123.465 153.171 121.124 155.505 121.124 158.384C121.124 161.263 123.465 163.596 126.353 163.596Z" fill="url(#paint19_linear)"/>
</mask>
<g mask="url(#mask9)">
<path d="M126.353 163.596C129.24 163.596 131.581 161.263 131.581 158.384C131.581 155.505 129.24 153.171 126.353 153.171C123.465 153.171 121.124 155.505 121.124 158.384C121.124 161.263 123.465 163.596 126.353 163.596Z" fill="url(#paint20_linear)"/>
</g>
<mask id="mask10" mask-type="alpha" maskUnits="userSpaceOnUse" x="0" y="179" width="11" height="11">
<path d="M5.22838 189.713C8.11594 189.713 10.4568 187.379 10.4568 184.501C10.4568 181.622 8.11594 179.288 5.22838 179.288C2.34082 179.288 0 181.622 0 184.501C0 187.379 2.34082 189.713 5.22838 189.713Z" fill="url(#paint21_linear)"/>
</mask>
<g mask="url(#mask10)">
<path d="M5.22838 189.713C8.11594 189.713 10.4568 187.379 10.4568 184.501C10.4568 181.622 8.11594 179.288 5.22838 179.288C2.34082 179.288 0 181.622 0 184.501C0 187.379 2.34082 189.713 5.22838 189.713Z" fill="url(#paint22_linear)"/>
</g>
<mask id="mask11" mask-type="alpha" maskUnits="userSpaceOnUse" x="30" y="179" width="11" height="11">
<path d="M35.5095 189.713C38.397 189.713 40.7378 187.379 40.7378 184.501C40.7378 181.622 38.397 179.288 35.5095 179.288C32.6219 179.288 30.2811 181.622 30.2811 184.501C30.2811 187.379 32.6219 189.713 35.5095 189.713Z" fill="url(#paint23_linear)"/>
</mask>
<g mask="url(#mask11)">
<path d="M35.5095 189.713C38.397 189.713 40.7378 187.379 40.7378 184.501C40.7378 181.622 38.397 179.288 35.5095 179.288C32.6219 179.288 30.2811 181.622 30.2811 184.501C30.2811 187.379 32.6219 189.713 35.5095 189.713Z" fill="url(#paint24_linear)"/>
</g>
<mask id="mask12" mask-type="alpha" maskUnits="userSpaceOnUse" x="60" y="179" width="12" height="11">
<path d="M65.7905 189.713C68.6781 189.713 71.0189 187.379 71.0189 184.501C71.0189 181.622 68.6781 179.288 65.7905 179.288C62.9029 179.288 60.5621 181.622 60.5621 184.501C60.5621 187.379 62.9029 189.713 65.7905 189.713Z" fill="url(#paint25_linear)"/>
</mask>
<g mask="url(#mask12)">
<path d="M65.7905 189.713C68.6781 189.713 71.0189 187.379 71.0189 184.501C71.0189 181.622 68.6781 179.288 65.7905 179.288C62.9029 179.288 60.5621 181.622 60.5621 184.501C60.5621 187.379 62.9029 189.713 65.7905 189.713Z" fill="url(#paint26_linear)"/>
</g>
<mask id="mask13" mask-type="alpha" maskUnits="userSpaceOnUse" x="90" y="179" width="12" height="11">
<path d="M96.0716 189.713C98.9592 189.713 101.3 187.379 101.3 184.501C101.3 181.622 98.9592 179.288 96.0716 179.288C93.184 179.288 90.8432 181.622 90.8432 184.501C90.8432 187.379 93.184 189.713 96.0716 189.713Z" fill="url(#paint27_linear)"/>
</mask>
<g mask="url(#mask13)">
<path d="M96.0716 189.713C98.9592 189.713 101.3 187.379 101.3 184.501C101.3 181.622 98.9592 179.288 96.0716 179.288C93.184 179.288 90.8432 181.622 90.8432 184.501C90.8432 187.379 93.184 189.713 96.0716 189.713Z" fill="url(#paint28_linear)"/>
</g>
<mask id="mask14" mask-type="alpha" maskUnits="userSpaceOnUse" x="121" y="179" width="11" height="11">
<path d="M126.353 189.713C129.24 189.713 131.581 187.379 131.581 184.501C131.581 181.622 129.24 179.288 126.353 179.288C123.465 179.288 121.124 181.622 121.124 184.501C121.124 187.379 123.465 189.713 126.353 189.713Z" fill="url(#paint29_linear)"/>
</mask>
<g mask="url(#mask14)">
<path d="M126.353 189.713C129.24 189.713 131.581 187.379 131.581 184.501C131.581 181.622 129.24 179.288 126.353 179.288C123.465 179.288 121.124 181.622 121.124 184.501C121.124 187.379 123.465 189.713 126.353 189.713Z" fill="url(#paint30_linear)"/>
</g>
<mask id="mask15" mask-type="alpha" maskUnits="userSpaceOnUse" x="0" y="205" width="11" height="11">
<path d="M5.22838 215.884C8.11594 215.884 10.4568 213.55 10.4568 210.671C10.4568 207.793 8.11594 205.459 5.22838 205.459C2.34082 205.459 0 207.793 0 210.671C0 213.55 2.34082 215.884 5.22838 215.884Z" fill="url(#paint31_linear)"/>
</mask>
<g mask="url(#mask15)">
<path d="M5.22838 215.884C8.11594 215.884 10.4568 213.55 10.4568 210.671C10.4568 207.793 8.11594 205.459 5.22838 205.459C2.34082 205.459 0 207.793 0 210.671C0 213.55 2.34082 215.884 5.22838 215.884Z" fill="url(#paint32_linear)"/>
</g>
<mask id="mask16" mask-type="alpha" maskUnits="userSpaceOnUse" x="30" y="205" width="11" height="11">
<path d="M35.5095 215.884C38.397 215.884 40.7378 213.55 40.7378 210.671C40.7378 207.793 38.397 205.459 35.5095 205.459C32.6219 205.459 30.2811 207.793 30.2811 210.671C30.2811 213.55 32.6219 215.884 35.5095 215.884Z" fill="url(#paint33_linear)"/>
</mask>
<g mask="url(#mask16)">
<path d="M35.5095 215.884C38.397 215.884 40.7378 213.55 40.7378 210.671C40.7378 207.793 38.397 205.459 35.5095 205.459C32.6219 205.459 30.2811 207.793 30.2811 210.671C30.2811 213.55 32.6219 215.884 35.5095 215.884Z" fill="url(#paint34_linear)"/>
</g>
<mask id="mask17" mask-type="alpha" maskUnits="userSpaceOnUse" x="60" y="205" width="12" height="11">
<path d="M65.7905 215.884C68.6781 215.884 71.0189 213.55 71.0189 210.671C71.0189 207.793 68.6781 205.459 65.7905 205.459C62.9029 205.459 60.5621 207.793 60.5621 210.671C60.5621 213.55 62.9029 215.884 65.7905 215.884Z" fill="url(#paint35_linear)"/>
</mask>
<g mask="url(#mask17)">
<path d="M65.7905 215.884C68.6781 215.884 71.0189 213.55 71.0189 210.671C71.0189 207.793 68.6781 205.459 65.7905 205.459C62.9029 205.459 60.5621 207.793 60.5621 210.671C60.5621 213.55 62.9029 215.884 65.7905 215.884Z" fill="url(#paint36_linear)"/>
</g>
<mask id="mask18" mask-type="alpha" maskUnits="userSpaceOnUse" x="90" y="205" width="12" height="11">
<path d="M96.0716 215.884C98.9592 215.884 101.3 213.55 101.3 210.671C101.3 207.793 98.9592 205.459 96.0716 205.459C93.184 205.459 90.8432 207.793 90.8432 210.671C90.8432 213.55 93.184 215.884 96.0716 215.884Z" fill="url(#paint37_linear)"/>
</mask>
<g mask="url(#mask18)">
<path d="M96.0716 215.884C98.9592 215.884 101.3 213.55 101.3 210.671C101.3 207.793 98.9592 205.459 96.0716 205.459C93.184 205.459 90.8432 207.793 90.8432 210.671C90.8432 213.55 93.184 215.884 96.0716 215.884Z" fill="url(#paint38_linear)"/>
</g>
<mask id="mask19" mask-type="alpha" maskUnits="userSpaceOnUse" x="121" y="205" width="11" height="11">
<path d="M126.353 215.884C129.24 215.884 131.581 213.55 131.581 210.671C131.581 207.793 129.24 205.459 126.353 205.459C123.465 205.459 121.124 207.793 121.124 210.671C121.124 213.55 123.465 215.884 126.353 215.884Z" fill="url(#paint39_linear)"/>
</mask>
<g mask="url(#mask19)">
<path d="M126.353 215.884C129.24 215.884 131.581 213.55 131.581 210.671C131.581 207.793 129.24 205.459 126.353 205.459C123.465 205.459 121.124 207.793 121.124 210.671C121.124 213.55 123.465 215.884 126.353 215.884Z" fill="url(#paint40_linear)"/>
</g>
<mask id="mask20" mask-type="alpha" maskUnits="userSpaceOnUse" x="0" y="231" width="11" height="12">
<path d="M5.22838 242.001C8.11594 242.001 10.4568 239.667 10.4568 236.788C10.4568 233.909 8.11594 231.576 5.22838 231.576C2.34082 231.576 0 233.909 0 236.788C0 239.667 2.34082 242.001 5.22838 242.001Z" fill="url(#paint41_linear)"/>
</mask>
<g mask="url(#mask20)">
<path d="M5.22838 242.001C8.11594 242.001 10.4568 239.667 10.4568 236.788C10.4568 233.909 8.11594 231.576 5.22838 231.576C2.34082 231.576 0 233.909 0 236.788C0 239.667 2.34082 242.001 5.22838 242.001Z" fill="url(#paint42_linear)"/>
</g>
<mask id="mask21" mask-type="alpha" maskUnits="userSpaceOnUse" x="30" y="231" width="11" height="12">
<path d="M35.5095 242.001C38.397 242.001 40.7378 239.667 40.7378 236.788C40.7378 233.909 38.397 231.576 35.5095 231.576C32.6219 231.576 30.2811 233.909 30.2811 236.788C30.2811 239.667 32.6219 242.001 35.5095 242.001Z" fill="url(#paint43_linear)"/>
</mask>
<g mask="url(#mask21)">
<path d="M35.5095 242.001C38.397 242.001 40.7378 239.667 40.7378 236.788C40.7378 233.909 38.397 231.576 35.5095 231.576C32.6219 231.576 30.2811 233.909 30.2811 236.788C30.2811 239.667 32.6219 242.001 35.5095 242.001Z" fill="url(#paint44_linear)"/>
</g>
<mask id="mask22" mask-type="alpha" maskUnits="userSpaceOnUse" x="60" y="231" width="12" height="12">
<path d="M65.7905 242.001C68.6781 242.001 71.0189 239.667 71.0189 236.788C71.0189 233.909 68.6781 231.576 65.7905 231.576C62.9029 231.576 60.5621 233.909 60.5621 236.788C60.5621 239.667 62.9029 242.001 65.7905 242.001Z" fill="url(#paint45_linear)"/>
</mask>
<g mask="url(#mask22)">
<path d="M65.7905 242.001C68.6781 242.001 71.0189 239.667 71.0189 236.788C71.0189 233.909 68.6781 231.576 65.7905 231.576C62.9029 231.576 60.5621 233.909 60.5621 236.788C60.5621 239.667 62.9029 242.001 65.7905 242.001Z" fill="url(#paint46_linear)"/>
</g>
<mask id="mask23" mask-type="alpha" maskUnits="userSpaceOnUse" x="90" y="231" width="12" height="12">
<path d="M96.0716 242.001C98.9592 242.001 101.3 239.667 101.3 236.788C101.3 233.909 98.9592 231.576 96.0716 231.576C93.184 231.576 90.8432 233.909 90.8432 236.788C90.8432 239.667 93.184 242.001 96.0716 242.001Z" fill="url(#paint47_linear)"/>
</mask>
<g mask="url(#mask23)">
<path d="M96.0716 242.001C98.9592 242.001 101.3 239.667 101.3 236.788C101.3 233.909 98.9592 231.576 96.0716 231.576C93.184 231.576 90.8432 233.909 90.8432 236.788C90.8432 239.667 93.184 242.001 96.0716 242.001Z" fill="url(#paint48_linear)"/>
</g>
<mask id="mask24" mask-type="alpha" maskUnits="userSpaceOnUse" x="121" y="231" width="11" height="12">
<path d="M126.353 242.001C129.24 242.001 131.581 239.667 131.581 236.788C131.581 233.909 129.24 231.576 126.353 231.576C123.465 231.576 121.124 233.909 121.124 236.788C121.124 239.667 123.465 242.001 126.353 242.001Z" fill="url(#paint49_linear)"/>
</mask>
<g mask="url(#mask24)">
<path d="M126.353 242.001C129.24 242.001 131.581 239.667 131.581 236.788C131.581 233.909 129.24 231.576 126.353 231.576C123.465 231.576 121.124 233.909 121.124 236.788C121.124 239.667 123.465 242.001 126.353 242.001Z" fill="url(#paint50_linear)"/>
</g>
</g>
<defs>
<linearGradient id="paint0_linear" x1="1218.01" y1="742.124" x2="1399.15" y2="151.875" gradientUnits="userSpaceOnUse">
<stop stop-color="#F3F7FF"/>
<stop offset="1" stop-color="#DEEEFE"/>
</linearGradient>
<linearGradient id="paint1_linear" x1="54.996" y1="258.134" x2="-16.4057" y2="76.3305" gradientUnits="userSpaceOnUse">
<stop/>
<stop offset="1" stop-color="white"/>
</linearGradient>
<linearGradient id="paint2_linear" x1="54.996" y1="258.134" x2="-16.4057" y2="76.3305" gradientUnits="userSpaceOnUse">
<stop stop-color="#97C3F9"/>
<stop offset="1" stop-color="#93C1F9"/>
</linearGradient>
<linearGradient id="paint3_linear" x1="81.2005" y1="247.843" x2="9.79889" y2="66.0392" gradientUnits="userSpaceOnUse">
<stop/>
<stop offset="1" stop-color="white"/>
</linearGradient>
<linearGradient id="paint4_linear" x1="81.2005" y1="247.843" x2="9.79889" y2="66.0392" gradientUnits="userSpaceOnUse">
<stop stop-color="#97C3F9"/>
<stop offset="1" stop-color="#93C1F9"/>
</linearGradient>
<linearGradient id="paint5_linear" x1="107.405" y1="237.552" x2="36.0033" y2="55.7479" gradientUnits="userSpaceOnUse">
<stop/>
<stop offset="1" stop-color="white"/>
</linearGradient>
<linearGradient id="paint6_linear" x1="107.405" y1="237.552" x2="36.0033" y2="55.7479" gradientUnits="userSpaceOnUse">
<stop stop-color="#97C3F9"/>
<stop offset="1" stop-color="#93C1F9"/>
</linearGradient>
<linearGradient id="paint7_linear" x1="133.609" y1="227.26" x2="62.2075" y2="45.4561" gradientUnits="userSpaceOnUse">
<stop/>
<stop offset="1" stop-color="white"/>
</linearGradient>
<linearGradient id="paint8_linear" x1="133.609" y1="227.26" x2="62.2075" y2="45.4561" gradientUnits="userSpaceOnUse">
<stop stop-color="#97C3F9"/>
<stop offset="1" stop-color="#93C1F9"/>
</linearGradient>
<linearGradient id="paint9_linear" x1="159.813" y1="216.968" x2="88.4119" y2="35.1646" gradientUnits="userSpaceOnUse">
<stop/>
<stop offset="1" stop-color="white"/>
</linearGradient>
<linearGradient id="paint10_linear" x1="159.813" y1="216.968" x2="88.4119" y2="35.1646" gradientUnits="userSpaceOnUse">
<stop stop-color="#97C3F9"/>
<stop offset="1" stop-color="#93C1F9"/>
</linearGradient>
<linearGradient id="paint11_linear" x1="46.0538" y1="261.646" x2="-25.3466" y2="79.8433" gradientUnits="userSpaceOnUse">
<stop/>
<stop offset="1" stop-color="white"/>
</linearGradient>
<linearGradient id="paint12_linear" x1="46.0538" y1="261.646" x2="-25.3466" y2="79.8433" gradientUnits="userSpaceOnUse">
<stop stop-color="#97C3F9"/>
<stop offset="1" stop-color="#93C1F9"/>
</linearGradient>
<linearGradient id="paint13_linear" x1="72.2581" y1="251.354" x2="0.857718" y2="69.5514" gradientUnits="userSpaceOnUse">
<stop/>
<stop offset="1" stop-color="white"/>
</linearGradient>
<linearGradient id="paint14_linear" x1="72.2581" y1="251.354" x2="0.857718" y2="69.5514" gradientUnits="userSpaceOnUse">
<stop stop-color="#97C3F9"/>
<stop offset="1" stop-color="#93C1F9"/>
</linearGradient>
<linearGradient id="paint15_linear" x1="98.4624" y1="241.062" x2="27.062" y2="59.2601" gradientUnits="userSpaceOnUse">
<stop/>
<stop offset="1" stop-color="white"/>
</linearGradient>
<linearGradient id="paint16_linear" x1="98.4624" y1="241.062" x2="27.062" y2="59.2601" gradientUnits="userSpaceOnUse">
<stop stop-color="#97C3F9"/>
<stop offset="1" stop-color="#93C1F9"/>
</linearGradient>
<linearGradient id="paint17_linear" x1="124.667" y1="230.771" x2="53.2663" y2="48.9686" gradientUnits="userSpaceOnUse">
<stop/>
<stop offset="1" stop-color="white"/>
</linearGradient>
<linearGradient id="paint18_linear" x1="124.667" y1="230.771" x2="53.2663" y2="48.9686" gradientUnits="userSpaceOnUse">
<stop stop-color="#97C3F9"/>
<stop offset="1" stop-color="#93C1F9"/>
</linearGradient>
<linearGradient id="paint19_linear" x1="150.871" y1="220.48" x2="79.4707" y2="38.6773" gradientUnits="userSpaceOnUse">
<stop/>
<stop offset="1" stop-color="white"/>
</linearGradient>
<linearGradient id="paint20_linear" x1="150.871" y1="220.48" x2="79.4707" y2="38.6773" gradientUnits="userSpaceOnUse">
<stop stop-color="#97C3F9"/>
<stop offset="1" stop-color="#93C1F9"/>
</linearGradient>
<linearGradient id="paint21_linear" x1="37.1113" y1="265.159" x2="-34.2903" y2="83.3548" gradientUnits="userSpaceOnUse">
<stop/>
<stop offset="1" stop-color="white"/>
</linearGradient>
<linearGradient id="paint22_linear" x1="37.1113" y1="265.159" x2="-34.2903" y2="83.3548" gradientUnits="userSpaceOnUse">
<stop stop-color="#97C3F9"/>
<stop offset="1" stop-color="#93C1F9"/>
</linearGradient>
<linearGradient id="paint23_linear" x1="63.3157" y1="254.867" x2="-8.0859" y2="73.0632" gradientUnits="userSpaceOnUse">
<stop/>
<stop offset="1" stop-color="white"/>
</linearGradient>
<linearGradient id="paint24_linear" x1="63.3157" y1="254.867" x2="-8.0859" y2="73.0632" gradientUnits="userSpaceOnUse">
<stop stop-color="#97C3F9"/>
<stop offset="1" stop-color="#93C1F9"/>
</linearGradient>
<linearGradient id="paint25_linear" x1="89.52" y1="244.576" x2="18.1185" y2="62.7718" gradientUnits="userSpaceOnUse">
<stop/>
<stop offset="1" stop-color="white"/>
</linearGradient>
<linearGradient id="paint26_linear" x1="89.52" y1="244.576" x2="18.1185" y2="62.7718" gradientUnits="userSpaceOnUse">
<stop stop-color="#97C3F9"/>
<stop offset="1" stop-color="#93C1F9"/>
</linearGradient>
<linearGradient id="paint27_linear" x1="115.724" y1="234.284" x2="44.3227" y2="52.4801" gradientUnits="userSpaceOnUse">
<stop/>
<stop offset="1" stop-color="white"/>
</linearGradient>
<linearGradient id="paint28_linear" x1="115.724" y1="234.284" x2="44.3227" y2="52.4801" gradientUnits="userSpaceOnUse">
<stop stop-color="#97C3F9"/>
<stop offset="1" stop-color="#93C1F9"/>
</linearGradient>
<linearGradient id="paint29_linear" x1="141.929" y1="223.992" x2="70.5271" y2="42.1886" gradientUnits="userSpaceOnUse">
<stop/>
<stop offset="1" stop-color="white"/>
</linearGradient>
<linearGradient id="paint30_linear" x1="141.929" y1="223.992" x2="70.5271" y2="42.1886" gradientUnits="userSpaceOnUse">
<stop stop-color="#97C3F9"/>
<stop offset="1" stop-color="#93C1F9"/>
</linearGradient>
<linearGradient id="paint31_linear" x1="28.169" y1="268.671" x2="-43.2327" y2="86.8667" gradientUnits="userSpaceOnUse">
<stop/>
<stop offset="1" stop-color="white"/>
</linearGradient>
<linearGradient id="paint32_linear" x1="28.169" y1="268.671" x2="-43.2327" y2="86.8667" gradientUnits="userSpaceOnUse">
<stop stop-color="#97C3F9"/>
<stop offset="1" stop-color="#93C1F9"/>
</linearGradient>
<linearGradient id="paint33_linear" x1="54.3734" y1="258.379" x2="-17.0283" y2="76.5752" gradientUnits="userSpaceOnUse">
<stop/>
<stop offset="1" stop-color="white"/>
</linearGradient>
<linearGradient id="paint34_linear" x1="54.3734" y1="258.379" x2="-17.0283" y2="76.5752" gradientUnits="userSpaceOnUse">
<stop stop-color="#97C3F9"/>
<stop offset="1" stop-color="#93C1F9"/>
</linearGradient>
<linearGradient id="paint35_linear" x1="80.5776" y1="248.087" x2="9.17606" y2="66.2838" gradientUnits="userSpaceOnUse">
<stop/>
<stop offset="1" stop-color="white"/>
</linearGradient>
<linearGradient id="paint36_linear" x1="80.5776" y1="248.087" x2="9.17606" y2="66.2838" gradientUnits="userSpaceOnUse">
<stop stop-color="#97C3F9"/>
<stop offset="1" stop-color="#93C1F9"/>
</linearGradient>
<linearGradient id="paint37_linear" x1="106.782" y1="237.796" x2="35.3804" y2="55.9922" gradientUnits="userSpaceOnUse">
<stop/>
<stop offset="1" stop-color="white"/>
</linearGradient>
<linearGradient id="paint38_linear" x1="106.782" y1="237.796" x2="35.3804" y2="55.9922" gradientUnits="userSpaceOnUse">
<stop stop-color="#97C3F9"/>
<stop offset="1" stop-color="#93C1F9"/>
</linearGradient>
<linearGradient id="paint39_linear" x1="132.986" y1="227.504" x2="61.5847" y2="45.7006" gradientUnits="userSpaceOnUse">
<stop/>
<stop offset="1" stop-color="white"/>
</linearGradient>
<linearGradient id="paint40_linear" x1="132.986" y1="227.504" x2="61.5847" y2="45.7006" gradientUnits="userSpaceOnUse">
<stop stop-color="#97C3F9"/>
<stop offset="1" stop-color="#93C1F9"/>
</linearGradient>
<linearGradient id="paint41_linear" x1="19.2266" y1="272.182" x2="-52.1751" y2="90.3788" gradientUnits="userSpaceOnUse">
<stop/>
<stop offset="1" stop-color="white"/>
</linearGradient>
<linearGradient id="paint42_linear" x1="19.2266" y1="272.182" x2="-52.1751" y2="90.3788" gradientUnits="userSpaceOnUse">
<stop stop-color="#97C3F9"/>
<stop offset="1" stop-color="#93C1F9"/>
</linearGradient>
<linearGradient id="paint43_linear" x1="45.431" y1="261.891" x2="-25.9706" y2="80.0873" gradientUnits="userSpaceOnUse">
<stop/>
<stop offset="1" stop-color="white"/>
</linearGradient>
<linearGradient id="paint44_linear" x1="45.431" y1="261.891" x2="-25.9706" y2="80.0873" gradientUnits="userSpaceOnUse">
<stop stop-color="#97C3F9"/>
<stop offset="1" stop-color="#93C1F9"/>
</linearGradient>
<linearGradient id="paint45_linear" x1="71.6353" y1="251.6" x2="0.233718" y2="69.7959" gradientUnits="userSpaceOnUse">
<stop/>
<stop offset="1" stop-color="white"/>
</linearGradient>
<linearGradient id="paint46_linear" x1="71.6353" y1="251.6" x2="0.233718" y2="69.7959" gradientUnits="userSpaceOnUse">
<stop stop-color="#97C3F9"/>
<stop offset="1" stop-color="#93C1F9"/>
</linearGradient>
<linearGradient id="paint47_linear" x1="97.8397" y1="241.308" x2="26.438" y2="59.5043" gradientUnits="userSpaceOnUse">
<stop/>
<stop offset="1" stop-color="white"/>
</linearGradient>
<linearGradient id="paint48_linear" x1="97.8397" y1="241.308" x2="26.438" y2="59.5043" gradientUnits="userSpaceOnUse">
<stop stop-color="#97C3F9"/>
<stop offset="1" stop-color="#93C1F9"/>
</linearGradient>
<linearGradient id="paint49_linear" x1="124.044" y1="231.017" x2="52.6424" y2="49.2128" gradientUnits="userSpaceOnUse">
<stop/>
<stop offset="1" stop-color="white"/>
</linearGradient>
<linearGradient id="paint50_linear" x1="124.044" y1="231.017" x2="52.6424" y2="49.2128" gradientUnits="userSpaceOnUse">
<stop stop-color="#97C3F9"/>
<stop offset="1" stop-color="#93C1F9"/>
</linearGradient>
<clipPath id="clip0">
<rect width="778.734" height="557.403" fill="white" transform="translate(1593.04 791.608) rotate(-159.843)"/>
</clipPath>
</defs>
</svg>
